<mxfile host="Electron" modified="2023-04-29T00:03:34.634Z" agent="Mozilla/5.0 (Windows NT 10.0; Win64; x64) AppleWebKit/537.36 (KHTML, like Gecko) draw.io/21.2.1 Chrome/112.0.5615.87 Electron/24.1.2 Safari/537.36" etag="4cofo_8ubcoQTewKXUoi" version="21.2.1" type="device">
  <diagram id="C5RBs43oDa-KdzZeNtuy" name="Page-1">
    <mxGraphModel dx="1098" dy="988" grid="1" gridSize="10" guides="1" tooltips="1" connect="1" arrows="1" fold="1" page="1" pageScale="1" pageWidth="827" pageHeight="1169" math="0" shadow="0">
      <root>
        <mxCell id="WIyWlLk6GJQsqaUBKTNV-0" />
        <mxCell id="WIyWlLk6GJQsqaUBKTNV-1" parent="WIyWlLk6GJQsqaUBKTNV-0" />
        <mxCell id="WIyWlLk6GJQsqaUBKTNV-2" value="" style="rounded=0;html=1;jettySize=auto;orthogonalLoop=1;fontSize=11;endArrow=block;endFill=0;endSize=8;strokeWidth=1;shadow=0;labelBackgroundColor=none;edgeStyle=orthogonalEdgeStyle;" parent="WIyWlLk6GJQsqaUBKTNV-1" source="WIyWlLk6GJQsqaUBKTNV-3" target="WIyWlLk6GJQsqaUBKTNV-6" edge="1">
          <mxGeometry relative="1" as="geometry" />
        </mxCell>
        <mxCell id="WIyWlLk6GJQsqaUBKTNV-3" value="START_PRINT" style="rounded=1;whiteSpace=wrap;html=1;fontSize=12;glass=0;strokeWidth=1;shadow=0;" parent="WIyWlLk6GJQsqaUBKTNV-1" vertex="1">
          <mxGeometry x="160" y="20" width="120" height="40" as="geometry" />
        </mxCell>
        <mxCell id="e3osEH9YP-LwYrJpAcoy-17" value="" style="edgeStyle=orthogonalEdgeStyle;rounded=0;orthogonalLoop=1;jettySize=auto;html=1;" edge="1" parent="WIyWlLk6GJQsqaUBKTNV-1" source="WIyWlLk6GJQsqaUBKTNV-6" target="WIyWlLk6GJQsqaUBKTNV-10">
          <mxGeometry relative="1" as="geometry" />
        </mxCell>
        <mxCell id="e3osEH9YP-LwYrJpAcoy-68" style="edgeStyle=orthogonalEdgeStyle;rounded=0;orthogonalLoop=1;jettySize=auto;html=1;entryX=0;entryY=0.5;entryDx=0;entryDy=0;" edge="1" parent="WIyWlLk6GJQsqaUBKTNV-1" source="WIyWlLk6GJQsqaUBKTNV-6" target="e3osEH9YP-LwYrJpAcoy-61">
          <mxGeometry relative="1" as="geometry" />
        </mxCell>
        <mxCell id="WIyWlLk6GJQsqaUBKTNV-6" value="Preprint Tasks" style="rhombus;whiteSpace=wrap;html=1;shadow=0;fontFamily=Helvetica;fontSize=12;align=center;strokeWidth=1;spacing=6;spacingTop=-4;" parent="WIyWlLk6GJQsqaUBKTNV-1" vertex="1">
          <mxGeometry x="170" y="80" width="100" height="80" as="geometry" />
        </mxCell>
        <mxCell id="e3osEH9YP-LwYrJpAcoy-16" style="edgeStyle=orthogonalEdgeStyle;rounded=0;orthogonalLoop=1;jettySize=auto;html=1;entryX=0;entryY=0.5;entryDx=0;entryDy=0;" edge="1" parent="WIyWlLk6GJQsqaUBKTNV-1" source="WIyWlLk6GJQsqaUBKTNV-10" target="WIyWlLk6GJQsqaUBKTNV-12">
          <mxGeometry relative="1" as="geometry" />
        </mxCell>
        <mxCell id="e3osEH9YP-LwYrJpAcoy-18" value="" style="edgeStyle=orthogonalEdgeStyle;rounded=0;orthogonalLoop=1;jettySize=auto;html=1;" edge="1" parent="WIyWlLk6GJQsqaUBKTNV-1" source="WIyWlLk6GJQsqaUBKTNV-10" target="e3osEH9YP-LwYrJpAcoy-0">
          <mxGeometry relative="1" as="geometry" />
        </mxCell>
        <mxCell id="WIyWlLk6GJQsqaUBKTNV-10" value="Heating" style="rhombus;whiteSpace=wrap;html=1;shadow=0;fontFamily=Helvetica;fontSize=12;align=center;strokeWidth=1;spacing=6;spacingTop=-4;" parent="WIyWlLk6GJQsqaUBKTNV-1" vertex="1">
          <mxGeometry x="170" y="340" width="100" height="80" as="geometry" />
        </mxCell>
        <mxCell id="WIyWlLk6GJQsqaUBKTNV-12" value="Heat Bed" style="rounded=1;whiteSpace=wrap;html=1;fontSize=12;glass=0;strokeWidth=1;shadow=0;" parent="WIyWlLk6GJQsqaUBKTNV-1" vertex="1">
          <mxGeometry x="500" y="365" width="120" height="30" as="geometry" />
        </mxCell>
        <mxCell id="e3osEH9YP-LwYrJpAcoy-45" style="edgeStyle=orthogonalEdgeStyle;rounded=0;orthogonalLoop=1;jettySize=auto;html=1;" edge="1" parent="WIyWlLk6GJQsqaUBKTNV-1" source="e3osEH9YP-LwYrJpAcoy-0" target="e3osEH9YP-LwYrJpAcoy-44">
          <mxGeometry relative="1" as="geometry" />
        </mxCell>
        <mxCell id="e3osEH9YP-LwYrJpAcoy-0" value="Homing" style="rhombus;whiteSpace=wrap;html=1;" vertex="1" parent="WIyWlLk6GJQsqaUBKTNV-1">
          <mxGeometry x="180" y="450" width="80" height="80" as="geometry" />
        </mxCell>
        <mxCell id="e3osEH9YP-LwYrJpAcoy-84" style="edgeStyle=orthogonalEdgeStyle;rounded=0;orthogonalLoop=1;jettySize=auto;html=1;entryX=0;entryY=0.5;entryDx=0;entryDy=0;" edge="1" parent="WIyWlLk6GJQsqaUBKTNV-1" source="e3osEH9YP-LwYrJpAcoy-1" target="e3osEH9YP-LwYrJpAcoy-78">
          <mxGeometry relative="1" as="geometry" />
        </mxCell>
        <mxCell id="e3osEH9YP-LwYrJpAcoy-1" value="Leveling" style="rhombus;whiteSpace=wrap;html=1;" vertex="1" parent="WIyWlLk6GJQsqaUBKTNV-1">
          <mxGeometry x="180" y="560" width="80" height="80" as="geometry" />
        </mxCell>
        <mxCell id="e3osEH9YP-LwYrJpAcoy-32" value="" style="edgeStyle=orthogonalEdgeStyle;rounded=0;orthogonalLoop=1;jettySize=auto;html=1;" edge="1" parent="WIyWlLk6GJQsqaUBKTNV-1" source="e3osEH9YP-LwYrJpAcoy-2" target="e3osEH9YP-LwYrJpAcoy-30">
          <mxGeometry relative="1" as="geometry" />
        </mxCell>
        <mxCell id="e3osEH9YP-LwYrJpAcoy-2" value="Mesh" style="rhombus;whiteSpace=wrap;html=1;" vertex="1" parent="WIyWlLk6GJQsqaUBKTNV-1">
          <mxGeometry x="180" y="660" width="80" height="80" as="geometry" />
        </mxCell>
        <mxCell id="e3osEH9YP-LwYrJpAcoy-47" style="edgeStyle=orthogonalEdgeStyle;rounded=0;orthogonalLoop=1;jettySize=auto;html=1;entryX=0;entryY=0.5;entryDx=0;entryDy=0;" edge="1" parent="WIyWlLk6GJQsqaUBKTNV-1" source="e3osEH9YP-LwYrJpAcoy-3" target="e3osEH9YP-LwYrJpAcoy-46">
          <mxGeometry relative="1" as="geometry" />
        </mxCell>
        <mxCell id="e3osEH9YP-LwYrJpAcoy-3" value="Heat Nozzle" style="rhombus;whiteSpace=wrap;html=1;" vertex="1" parent="WIyWlLk6GJQsqaUBKTNV-1">
          <mxGeometry x="180" y="760" width="80" height="80" as="geometry" />
        </mxCell>
        <mxCell id="e3osEH9YP-LwYrJpAcoy-4" value="Set Z-Offset" style="rhombus;whiteSpace=wrap;html=1;" vertex="1" parent="WIyWlLk6GJQsqaUBKTNV-1">
          <mxGeometry x="180" y="870" width="80" height="80" as="geometry" />
        </mxCell>
        <mxCell id="e3osEH9YP-LwYrJpAcoy-52" style="edgeStyle=orthogonalEdgeStyle;rounded=0;orthogonalLoop=1;jettySize=auto;html=1;entryX=0;entryY=0.5;entryDx=0;entryDy=0;" edge="1" parent="WIyWlLk6GJQsqaUBKTNV-1" source="e3osEH9YP-LwYrJpAcoy-5" target="e3osEH9YP-LwYrJpAcoy-48">
          <mxGeometry relative="1" as="geometry" />
        </mxCell>
        <mxCell id="e3osEH9YP-LwYrJpAcoy-5" value="Purge" style="rhombus;whiteSpace=wrap;html=1;" vertex="1" parent="WIyWlLk6GJQsqaUBKTNV-1">
          <mxGeometry x="180" y="970" width="80" height="80" as="geometry" />
        </mxCell>
        <mxCell id="e3osEH9YP-LwYrJpAcoy-6" value="Print" style="ellipse;whiteSpace=wrap;html=1;" vertex="1" parent="WIyWlLk6GJQsqaUBKTNV-1">
          <mxGeometry x="160" y="1080" width="120" height="80" as="geometry" />
        </mxCell>
        <mxCell id="e3osEH9YP-LwYrJpAcoy-7" value="" style="endArrow=classic;html=1;rounded=0;exitX=0.5;exitY=1;exitDx=0;exitDy=0;" edge="1" parent="WIyWlLk6GJQsqaUBKTNV-1" source="e3osEH9YP-LwYrJpAcoy-0" target="e3osEH9YP-LwYrJpAcoy-1">
          <mxGeometry width="50" height="50" relative="1" as="geometry">
            <mxPoint x="390" y="940" as="sourcePoint" />
            <mxPoint x="440" y="890" as="targetPoint" />
          </mxGeometry>
        </mxCell>
        <mxCell id="e3osEH9YP-LwYrJpAcoy-8" value="" style="endArrow=classic;html=1;rounded=0;exitX=0.5;exitY=1;exitDx=0;exitDy=0;" edge="1" parent="WIyWlLk6GJQsqaUBKTNV-1" source="e3osEH9YP-LwYrJpAcoy-1" target="e3osEH9YP-LwYrJpAcoy-2">
          <mxGeometry width="50" height="50" relative="1" as="geometry">
            <mxPoint x="390" y="740" as="sourcePoint" />
            <mxPoint x="440" y="690" as="targetPoint" />
          </mxGeometry>
        </mxCell>
        <mxCell id="e3osEH9YP-LwYrJpAcoy-9" value="" style="endArrow=classic;html=1;rounded=0;exitX=0.5;exitY=1;exitDx=0;exitDy=0;entryX=0.5;entryY=0;entryDx=0;entryDy=0;" edge="1" parent="WIyWlLk6GJQsqaUBKTNV-1" source="e3osEH9YP-LwYrJpAcoy-2" target="e3osEH9YP-LwYrJpAcoy-3">
          <mxGeometry width="50" height="50" relative="1" as="geometry">
            <mxPoint x="360" y="670" as="sourcePoint" />
            <mxPoint x="410" y="620" as="targetPoint" />
          </mxGeometry>
        </mxCell>
        <mxCell id="e3osEH9YP-LwYrJpAcoy-10" value="" style="endArrow=classic;html=1;rounded=0;entryX=0.5;entryY=0;entryDx=0;entryDy=0;" edge="1" parent="WIyWlLk6GJQsqaUBKTNV-1" source="e3osEH9YP-LwYrJpAcoy-3" target="e3osEH9YP-LwYrJpAcoy-4">
          <mxGeometry width="50" height="50" relative="1" as="geometry">
            <mxPoint x="310" y="830" as="sourcePoint" />
            <mxPoint x="220" y="830" as="targetPoint" />
          </mxGeometry>
        </mxCell>
        <mxCell id="e3osEH9YP-LwYrJpAcoy-11" value="" style="endArrow=classic;html=1;rounded=0;entryX=0.5;entryY=0;entryDx=0;entryDy=0;exitX=0.5;exitY=1;exitDx=0;exitDy=0;" edge="1" parent="WIyWlLk6GJQsqaUBKTNV-1" source="e3osEH9YP-LwYrJpAcoy-4" target="e3osEH9YP-LwYrJpAcoy-5">
          <mxGeometry width="50" height="50" relative="1" as="geometry">
            <mxPoint x="250" y="930" as="sourcePoint" />
            <mxPoint x="440" y="690" as="targetPoint" />
          </mxGeometry>
        </mxCell>
        <mxCell id="e3osEH9YP-LwYrJpAcoy-12" value="" style="endArrow=classic;html=1;rounded=0;exitX=0.5;exitY=1;exitDx=0;exitDy=0;entryX=0.5;entryY=0;entryDx=0;entryDy=0;" edge="1" parent="WIyWlLk6GJQsqaUBKTNV-1" source="e3osEH9YP-LwYrJpAcoy-5" target="e3osEH9YP-LwYrJpAcoy-6">
          <mxGeometry width="50" height="50" relative="1" as="geometry">
            <mxPoint x="270" y="1030" as="sourcePoint" />
            <mxPoint x="220" y="1050" as="targetPoint" />
          </mxGeometry>
        </mxCell>
        <mxCell id="e3osEH9YP-LwYrJpAcoy-76" style="edgeStyle=orthogonalEdgeStyle;rounded=0;orthogonalLoop=1;jettySize=auto;html=1;" edge="1" parent="WIyWlLk6GJQsqaUBKTNV-1" source="e3osEH9YP-LwYrJpAcoy-13" target="e3osEH9YP-LwYrJpAcoy-60">
          <mxGeometry relative="1" as="geometry" />
        </mxCell>
        <mxCell id="e3osEH9YP-LwYrJpAcoy-13" value="G90 M83" style="rounded=1;whiteSpace=wrap;html=1;" vertex="1" parent="WIyWlLk6GJQsqaUBKTNV-1">
          <mxGeometry x="500" y="200" width="120" height="30" as="geometry" />
        </mxCell>
        <mxCell id="e3osEH9YP-LwYrJpAcoy-22" value="" style="edgeStyle=orthogonalEdgeStyle;rounded=0;orthogonalLoop=1;jettySize=auto;html=1;" edge="1" parent="WIyWlLk6GJQsqaUBKTNV-1" source="e3osEH9YP-LwYrJpAcoy-19" target="e3osEH9YP-LwYrJpAcoy-20">
          <mxGeometry relative="1" as="geometry" />
        </mxCell>
        <mxCell id="e3osEH9YP-LwYrJpAcoy-19" value="Heat Chamber" style="rounded=1;whiteSpace=wrap;html=1;" vertex="1" parent="WIyWlLk6GJQsqaUBKTNV-1">
          <mxGeometry x="500" y="420" width="120" height="30" as="geometry" />
        </mxCell>
        <mxCell id="e3osEH9YP-LwYrJpAcoy-20" value="Preheat Nozzle" style="rounded=1;whiteSpace=wrap;html=1;" vertex="1" parent="WIyWlLk6GJQsqaUBKTNV-1">
          <mxGeometry x="500" y="475" width="120" height="30" as="geometry" />
        </mxCell>
        <mxCell id="e3osEH9YP-LwYrJpAcoy-26" value="" style="endArrow=classic;html=1;rounded=0;entryX=0.5;entryY=0;entryDx=0;entryDy=0;exitX=0.5;exitY=1;exitDx=0;exitDy=0;" edge="1" parent="WIyWlLk6GJQsqaUBKTNV-1" source="WIyWlLk6GJQsqaUBKTNV-12" target="e3osEH9YP-LwYrJpAcoy-19">
          <mxGeometry width="50" height="50" relative="1" as="geometry">
            <mxPoint x="390" y="340" as="sourcePoint" />
            <mxPoint x="440" y="290" as="targetPoint" />
          </mxGeometry>
        </mxCell>
        <mxCell id="e3osEH9YP-LwYrJpAcoy-27" value="None" style="rounded=1;whiteSpace=wrap;html=1;" vertex="1" parent="WIyWlLk6GJQsqaUBKTNV-1">
          <mxGeometry x="690" y="540" width="120" height="30" as="geometry" />
        </mxCell>
        <mxCell id="e3osEH9YP-LwYrJpAcoy-36" value="" style="edgeStyle=orthogonalEdgeStyle;rounded=0;orthogonalLoop=1;jettySize=auto;html=1;" edge="1" parent="WIyWlLk6GJQsqaUBKTNV-1" source="e3osEH9YP-LwYrJpAcoy-30" target="e3osEH9YP-LwYrJpAcoy-35">
          <mxGeometry relative="1" as="geometry" />
        </mxCell>
        <mxCell id="e3osEH9YP-LwYrJpAcoy-30" value="Home Z" style="rounded=1;whiteSpace=wrap;html=1;" vertex="1" parent="WIyWlLk6GJQsqaUBKTNV-1">
          <mxGeometry x="490" y="690" width="120" height="20" as="geometry" />
        </mxCell>
        <mxCell id="e3osEH9YP-LwYrJpAcoy-40" value="" style="edgeStyle=orthogonalEdgeStyle;rounded=0;orthogonalLoop=1;jettySize=auto;html=1;entryX=0;entryY=0.5;entryDx=0;entryDy=0;" edge="1" parent="WIyWlLk6GJQsqaUBKTNV-1" source="e3osEH9YP-LwYrJpAcoy-35" target="e3osEH9YP-LwYrJpAcoy-39">
          <mxGeometry relative="1" as="geometry" />
        </mxCell>
        <mxCell id="e3osEH9YP-LwYrJpAcoy-41" style="edgeStyle=orthogonalEdgeStyle;rounded=0;orthogonalLoop=1;jettySize=auto;html=1;entryX=0;entryY=0.5;entryDx=0;entryDy=0;" edge="1" parent="WIyWlLk6GJQsqaUBKTNV-1" source="e3osEH9YP-LwYrJpAcoy-35" target="e3osEH9YP-LwYrJpAcoy-37">
          <mxGeometry relative="1" as="geometry" />
        </mxCell>
        <mxCell id="e3osEH9YP-LwYrJpAcoy-42" style="edgeStyle=orthogonalEdgeStyle;rounded=0;orthogonalLoop=1;jettySize=auto;html=1;entryX=0;entryY=0.5;entryDx=0;entryDy=0;" edge="1" parent="WIyWlLk6GJQsqaUBKTNV-1" source="e3osEH9YP-LwYrJpAcoy-35" target="e3osEH9YP-LwYrJpAcoy-38">
          <mxGeometry relative="1" as="geometry" />
        </mxCell>
        <mxCell id="e3osEH9YP-LwYrJpAcoy-35" value="Mesh options" style="shape=hexagon;perimeter=hexagonPerimeter2;whiteSpace=wrap;html=1;fixedSize=1;" vertex="1" parent="WIyWlLk6GJQsqaUBKTNV-1">
          <mxGeometry x="490" y="752.5" width="120" height="40" as="geometry" />
        </mxCell>
        <mxCell id="e3osEH9YP-LwYrJpAcoy-37" value="None / Manual" style="rounded=1;whiteSpace=wrap;html=1;" vertex="1" parent="WIyWlLk6GJQsqaUBKTNV-1">
          <mxGeometry x="670" y="727.5" width="120" height="25" as="geometry" />
        </mxCell>
        <mxCell id="e3osEH9YP-LwYrJpAcoy-38" value="As needed" style="rounded=1;whiteSpace=wrap;html=1;" vertex="1" parent="WIyWlLk6GJQsqaUBKTNV-1">
          <mxGeometry x="670" y="760" width="120" height="25" as="geometry" />
        </mxCell>
        <mxCell id="e3osEH9YP-LwYrJpAcoy-39" value="KAMP" style="rounded=1;whiteSpace=wrap;html=1;" vertex="1" parent="WIyWlLk6GJQsqaUBKTNV-1">
          <mxGeometry x="670" y="792.5" width="120" height="25" as="geometry" />
        </mxCell>
        <mxCell id="e3osEH9YP-LwYrJpAcoy-44" value="All 3 Axis" style="whiteSpace=wrap;html=1;aspect=fixed;" vertex="1" parent="WIyWlLk6GJQsqaUBKTNV-1">
          <mxGeometry x="300" y="455" width="70" height="70" as="geometry" />
        </mxCell>
        <mxCell id="e3osEH9YP-LwYrJpAcoy-46" value="To Print Temp" style="whiteSpace=wrap;html=1;aspect=fixed;" vertex="1" parent="WIyWlLk6GJQsqaUBKTNV-1">
          <mxGeometry x="295" y="760" width="80" height="80" as="geometry" />
        </mxCell>
        <mxCell id="e3osEH9YP-LwYrJpAcoy-57" style="edgeStyle=orthogonalEdgeStyle;rounded=0;orthogonalLoop=1;jettySize=auto;html=1;entryX=0.5;entryY=0;entryDx=0;entryDy=0;" edge="1" parent="WIyWlLk6GJQsqaUBKTNV-1" source="e3osEH9YP-LwYrJpAcoy-48" target="e3osEH9YP-LwYrJpAcoy-53">
          <mxGeometry relative="1" as="geometry" />
        </mxCell>
        <mxCell id="e3osEH9YP-LwYrJpAcoy-48" value="Wipe" style="rounded=1;whiteSpace=wrap;html=1;" vertex="1" parent="WIyWlLk6GJQsqaUBKTNV-1">
          <mxGeometry x="510" y="995" width="120" height="30" as="geometry" />
        </mxCell>
        <mxCell id="e3osEH9YP-LwYrJpAcoy-49" value="KAMP" style="rounded=1;whiteSpace=wrap;html=1;" vertex="1" parent="WIyWlLk6GJQsqaUBKTNV-1">
          <mxGeometry x="680" y="1120" width="120" height="20" as="geometry" />
        </mxCell>
        <mxCell id="e3osEH9YP-LwYrJpAcoy-50" value="General Purge Line" style="rounded=1;whiteSpace=wrap;html=1;" vertex="1" parent="WIyWlLk6GJQsqaUBKTNV-1">
          <mxGeometry x="680" y="1070" width="120" height="20" as="geometry" />
        </mxCell>
        <mxCell id="e3osEH9YP-LwYrJpAcoy-51" value="None" style="rounded=1;whiteSpace=wrap;html=1;" vertex="1" parent="WIyWlLk6GJQsqaUBKTNV-1">
          <mxGeometry x="680" y="1040" width="120" height="20" as="geometry" />
        </mxCell>
        <mxCell id="e3osEH9YP-LwYrJpAcoy-54" style="edgeStyle=orthogonalEdgeStyle;rounded=0;orthogonalLoop=1;jettySize=auto;html=1;entryX=0;entryY=0.5;entryDx=0;entryDy=0;" edge="1" parent="WIyWlLk6GJQsqaUBKTNV-1" source="e3osEH9YP-LwYrJpAcoy-53" target="e3osEH9YP-LwYrJpAcoy-51">
          <mxGeometry relative="1" as="geometry" />
        </mxCell>
        <mxCell id="e3osEH9YP-LwYrJpAcoy-55" style="edgeStyle=orthogonalEdgeStyle;rounded=0;orthogonalLoop=1;jettySize=auto;html=1;entryX=0;entryY=0.5;entryDx=0;entryDy=0;" edge="1" parent="WIyWlLk6GJQsqaUBKTNV-1" source="e3osEH9YP-LwYrJpAcoy-53" target="e3osEH9YP-LwYrJpAcoy-50">
          <mxGeometry relative="1" as="geometry" />
        </mxCell>
        <mxCell id="e3osEH9YP-LwYrJpAcoy-56" style="edgeStyle=orthogonalEdgeStyle;rounded=0;orthogonalLoop=1;jettySize=auto;html=1;entryX=0;entryY=0.5;entryDx=0;entryDy=0;" edge="1" parent="WIyWlLk6GJQsqaUBKTNV-1" source="e3osEH9YP-LwYrJpAcoy-53" target="e3osEH9YP-LwYrJpAcoy-49">
          <mxGeometry relative="1" as="geometry" />
        </mxCell>
        <mxCell id="e3osEH9YP-LwYrJpAcoy-53" value="Purge Line Options" style="shape=hexagon;perimeter=hexagonPerimeter2;whiteSpace=wrap;html=1;fixedSize=1;" vertex="1" parent="WIyWlLk6GJQsqaUBKTNV-1">
          <mxGeometry x="510" y="1055" width="120" height="50" as="geometry" />
        </mxCell>
        <mxCell id="e3osEH9YP-LwYrJpAcoy-73" style="edgeStyle=orthogonalEdgeStyle;rounded=0;orthogonalLoop=1;jettySize=auto;html=1;entryX=0;entryY=0.75;entryDx=0;entryDy=0;" edge="1" parent="WIyWlLk6GJQsqaUBKTNV-1" source="e3osEH9YP-LwYrJpAcoy-59" target="e3osEH9YP-LwYrJpAcoy-62">
          <mxGeometry relative="1" as="geometry" />
        </mxCell>
        <mxCell id="e3osEH9YP-LwYrJpAcoy-74" style="edgeStyle=orthogonalEdgeStyle;rounded=0;orthogonalLoop=1;jettySize=auto;html=1;entryX=0;entryY=0.5;entryDx=0;entryDy=0;" edge="1" parent="WIyWlLk6GJQsqaUBKTNV-1" source="e3osEH9YP-LwYrJpAcoy-59" target="e3osEH9YP-LwYrJpAcoy-63">
          <mxGeometry relative="1" as="geometry" />
        </mxCell>
        <mxCell id="e3osEH9YP-LwYrJpAcoy-75" style="edgeStyle=orthogonalEdgeStyle;rounded=0;orthogonalLoop=1;jettySize=auto;html=1;entryX=0;entryY=0.5;entryDx=0;entryDy=0;" edge="1" parent="WIyWlLk6GJQsqaUBKTNV-1" source="e3osEH9YP-LwYrJpAcoy-59" target="e3osEH9YP-LwYrJpAcoy-64">
          <mxGeometry relative="1" as="geometry" />
        </mxCell>
        <mxCell id="e3osEH9YP-LwYrJpAcoy-59" value="Enviroment&lt;br&gt;&amp;nbsp;Setup" style="shape=step;perimeter=stepPerimeter;whiteSpace=wrap;html=1;fixedSize=1;" vertex="1" parent="WIyWlLk6GJQsqaUBKTNV-1">
          <mxGeometry x="500" y="310" width="120" height="40" as="geometry" />
        </mxCell>
        <mxCell id="e3osEH9YP-LwYrJpAcoy-72" style="edgeStyle=orthogonalEdgeStyle;rounded=0;orthogonalLoop=1;jettySize=auto;html=1;entryX=0.5;entryY=0;entryDx=0;entryDy=0;" edge="1" parent="WIyWlLk6GJQsqaUBKTNV-1" source="e3osEH9YP-LwYrJpAcoy-60" target="e3osEH9YP-LwYrJpAcoy-59">
          <mxGeometry relative="1" as="geometry" />
        </mxCell>
        <mxCell id="e3osEH9YP-LwYrJpAcoy-60" value="Set Variables from GCode" style="rounded=1;whiteSpace=wrap;html=1;" vertex="1" parent="WIyWlLk6GJQsqaUBKTNV-1">
          <mxGeometry x="500" y="250" width="120" height="30" as="geometry" />
        </mxCell>
        <mxCell id="e3osEH9YP-LwYrJpAcoy-69" style="edgeStyle=orthogonalEdgeStyle;rounded=0;orthogonalLoop=1;jettySize=auto;html=1;exitX=0.5;exitY=1;exitDx=0;exitDy=0;entryX=0.5;entryY=0;entryDx=0;entryDy=0;" edge="1" parent="WIyWlLk6GJQsqaUBKTNV-1" source="e3osEH9YP-LwYrJpAcoy-61" target="e3osEH9YP-LwYrJpAcoy-67">
          <mxGeometry relative="1" as="geometry" />
        </mxCell>
        <mxCell id="e3osEH9YP-LwYrJpAcoy-61" value="&lt;div style=&quot;color: rgb(212, 212, 212); background-color: rgb(30, 30, 30); font-family: Consolas, &amp;quot;Courier New&amp;quot;, monospace; font-size: 14px; line-height: 19px;&quot;&gt;CLEAR_PAUSE&lt;/div&gt;" style="rounded=1;whiteSpace=wrap;html=1;" vertex="1" parent="WIyWlLk6GJQsqaUBKTNV-1">
          <mxGeometry x="500" y="105" width="120" height="30" as="geometry" />
        </mxCell>
        <mxCell id="e3osEH9YP-LwYrJpAcoy-62" value="Set Fans" style="rounded=1;whiteSpace=wrap;html=1;" vertex="1" parent="WIyWlLk6GJQsqaUBKTNV-1">
          <mxGeometry x="680" y="280" width="120" height="25" as="geometry" />
        </mxCell>
        <mxCell id="e3osEH9YP-LwYrJpAcoy-63" value="Set Scrubber" style="rounded=1;whiteSpace=wrap;html=1;" vertex="1" parent="WIyWlLk6GJQsqaUBKTNV-1">
          <mxGeometry x="680" y="315" width="120" height="30" as="geometry" />
        </mxCell>
        <mxCell id="e3osEH9YP-LwYrJpAcoy-64" value="Set Dehumidifier" style="rounded=1;whiteSpace=wrap;html=1;" vertex="1" parent="WIyWlLk6GJQsqaUBKTNV-1">
          <mxGeometry x="680" y="350" width="120" height="30" as="geometry" />
        </mxCell>
        <mxCell id="e3osEH9YP-LwYrJpAcoy-77" style="edgeStyle=orthogonalEdgeStyle;rounded=0;orthogonalLoop=1;jettySize=auto;html=1;" edge="1" parent="WIyWlLk6GJQsqaUBKTNV-1" source="e3osEH9YP-LwYrJpAcoy-67" target="e3osEH9YP-LwYrJpAcoy-13">
          <mxGeometry relative="1" as="geometry" />
        </mxCell>
        <mxCell id="e3osEH9YP-LwYrJpAcoy-67" value="CLEAR_ZHOP" style="rounded=1;whiteSpace=wrap;html=1;" vertex="1" parent="WIyWlLk6GJQsqaUBKTNV-1">
          <mxGeometry x="500" y="150" width="120" height="30" as="geometry" />
        </mxCell>
        <mxCell id="e3osEH9YP-LwYrJpAcoy-81" style="edgeStyle=orthogonalEdgeStyle;rounded=0;orthogonalLoop=1;jettySize=auto;html=1;entryX=0;entryY=0.5;entryDx=0;entryDy=0;" edge="1" parent="WIyWlLk6GJQsqaUBKTNV-1" source="e3osEH9YP-LwYrJpAcoy-78" target="e3osEH9YP-LwYrJpAcoy-79">
          <mxGeometry relative="1" as="geometry" />
        </mxCell>
        <mxCell id="e3osEH9YP-LwYrJpAcoy-82" style="edgeStyle=orthogonalEdgeStyle;rounded=0;orthogonalLoop=1;jettySize=auto;html=1;entryX=0;entryY=0.5;entryDx=0;entryDy=0;" edge="1" parent="WIyWlLk6GJQsqaUBKTNV-1" source="e3osEH9YP-LwYrJpAcoy-78" target="e3osEH9YP-LwYrJpAcoy-27">
          <mxGeometry relative="1" as="geometry" />
        </mxCell>
        <mxCell id="e3osEH9YP-LwYrJpAcoy-83" style="edgeStyle=orthogonalEdgeStyle;rounded=0;orthogonalLoop=1;jettySize=auto;html=1;entryX=0;entryY=0.5;entryDx=0;entryDy=0;" edge="1" parent="WIyWlLk6GJQsqaUBKTNV-1" source="e3osEH9YP-LwYrJpAcoy-78" target="e3osEH9YP-LwYrJpAcoy-80">
          <mxGeometry relative="1" as="geometry" />
        </mxCell>
        <mxCell id="e3osEH9YP-LwYrJpAcoy-78" value="Leveling Options" style="shape=hexagon;perimeter=hexagonPerimeter2;whiteSpace=wrap;html=1;fixedSize=1;" vertex="1" parent="WIyWlLk6GJQsqaUBKTNV-1">
          <mxGeometry x="500" y="575" width="120" height="50" as="geometry" />
        </mxCell>
        <mxCell id="e3osEH9YP-LwYrJpAcoy-79" value="Z-Tilt" style="rounded=1;whiteSpace=wrap;html=1;" vertex="1" parent="WIyWlLk6GJQsqaUBKTNV-1">
          <mxGeometry x="690" y="585" width="120" height="30" as="geometry" />
        </mxCell>
        <mxCell id="e3osEH9YP-LwYrJpAcoy-80" value="Gantry" style="rounded=1;whiteSpace=wrap;html=1;" vertex="1" parent="WIyWlLk6GJQsqaUBKTNV-1">
          <mxGeometry x="690" y="630" width="120" height="30" as="geometry" />
        </mxCell>
      </root>
    </mxGraphModel>
  </diagram>
</mxfile>
